<?xml version="1.0" standalone="no"?>
<!DOCTYPE svg PUBLIC "-//W3C//DTD SVG 20010904//EN"
 "http://www.w3.org/TR/2001/REC-SVG-20010904/DTD/svg10.dtd">
<svg version="1.0" xmlns="http://www.w3.org/2000/svg"
 width="1024.000000pt" height="1024.000000pt" viewBox="0 0 1024.000000 1024.000000"
 preserveAspectRatio="xMidYMid meet">
<metadata>
Created by potrace 1.16, written by Peter Selinger 2001-2019
</metadata>
<g transform="translate(0.000000,1024.000000) scale(0.100000,-0.100000)"
fill="#000000" stroke="none">
<path d="M0 5120 l0 -5120 5120 0 5120 0 0 5120 0 5120 -5120 0 -5120 0 0
-5120z m5545 3665 c331 -45 641 -130 928 -254 498 -215 840 -445 1207 -811
525 -523 854 -1119 1009 -1827 59 -269 75 -433 75 -773 1 -377 -19 -567 -95
-885 -61 -260 -185 -613 -231 -662 -28 -30 -63 -29 -93 2 -36 35 -32 72 20
213 112 304 193 646 226 967 16 155 16 565 0 720 -44 425 -183 891 -372 1254
-123 235 -331 525 -547 761 -578 632 -1341 1030 -2177 1137 -168 21 -556 23
-710 4 -721 -90 -1353 -363 -1905 -825 -171 -143 -428 -417 -582 -621 -120
-159 -284 -429 -353 -580 -154 -340 -262 -737 -306 -1125 -17 -150 -17 -611
-1 -755 45 -384 154 -784 307 -1133 39 -90 40 -117 5 -152 -25 -25 -81 -26
-103 -2 -44 49 -180 397 -247 633 -46 163 -92 380 -115 549 -25 180 -31 636
-11 837 88 879 445 1633 1066 2253 309 309 587 510 991 715 418 212 865 338
1349 379 108 9 551 -3 665 -19z m-85 -290 c435 -58 785 -166 1145 -355 400
-209 713 -454 1002 -783 137 -156 136 -170 -8 -65 -78 56 -169 85 -214 68 -29
-11 -29 -33 1 -39 17 -3 54 -33 54 -44 0 -3 -9 -7 -21 -10 -18 -5 -20 -2 -14
21 6 26 5 26 -11 10 -17 -16 -17 -19 -1 -36 9 -10 17 -22 17 -27 0 -13 42 -55
55 -55 7 0 20 -9 30 -19 17 -20 17 -20 -21 0 -21 10 -46 19 -56 19 -21 0 -32
17 -34 52 -1 15 -9 35 -19 44 -17 18 -35 56 -35 78 0 15 70 56 96 56 11 0 26
5 34 10 12 8 4 21 -45 70 -82 85 -454 380 -477 380 -5 0 -24 -11 -42 -25 -57
-43 -242 -124 -419 -182 -95 -31 -206 -69 -247 -85 -99 -39 -340 -160 -340
-171 0 -5 3 -7 8 -5 231 119 422 185 684 238 84 17 182 39 217 50 36 11 67 18
69 16 10 -11 -135 -52 -302 -87 -170 -35 -224 -49 -187 -49 26 0 369 61 451
80 47 11 114 29 148 40 35 12 69 19 75 17 17 -5 -107 -51 -268 -98 -77 -22
-142 -43 -145 -46 -16 -17 270 31 400 67 117 33 120 34 120 21 0 -19 -135 -58
-652 -188 -103 -26 -186 -48 -184 -50 10 -11 492 85 701 139 127 33 215 46
215 31 0 -5 -24 -14 -52 -21 -29 -6 -87 -21 -128 -32 -78 -21 -248 -58 -659
-140 -134 -27 -258 -54 -275 -59 -17 -5 -51 -15 -75 -21 -69 -18 -41 -22 40
-6 99 19 183 32 371 56 172 22 375 61 628 120 223 52 230 53 230 42 0 -24
-356 -108 -770 -182 -96 -17 -182 -33 -190 -35 -29 -8 188 4 251 14 156 25
371 52 376 47 12 -11 -56 -28 -256 -62 -430 -73 -681 -121 -690 -130 -3 -3 8
-4 24 0 17 3 111 17 210 31 99 14 259 39 355 55 289 48 434 60 408 34 -3 -3
-68 -12 -144 -20 -214 -22 -445 -53 -599 -79 l-140 -25 200 5 c112 3 270 14
359 25 170 22 490 50 569 50 26 0 47 -4 47 -9 0 -10 -19 -12 -410 -41 -146
-11 -296 -25 -335 -30 -38 -6 -92 -12 -120 -14 -27 -2 29 -2 125 0 96 3 216 7
265 10 64 5 87 3 80 -4 -6 -6 -73 -16 -150 -23 -77 -6 -196 -17 -265 -24
l-125 -14 209 4 c144 3 206 1 199 -6 -5 -5 -162 -21 -349 -35 -186 -14 -355
-29 -374 -32 -55 -11 239 -14 375 -4 66 5 158 6 205 3 72 -5 54 -7 -120 -14
-305 -11 -352 -24 -100 -27 273 -3 320 -17 70 -20 l-195 -3 123 -8 c159 -11
186 -25 66 -33 -132 -10 -145 -13 -79 -16 58 -3 59 -3 20 -10 l-40 -7 48 -2
c26 0 47 -5 47 -10 0 -6 -94 -8 -237 -6 -239 4 -246 2 -68 -25 171 -26 261
-43 269 -51 5 -4 6 -19 2 -32 -10 -43 -47 -50 -233 -42 -92 4 -176 9 -185 11
-10 3 -18 1 -18 -5 0 -6 15 -11 33 -11 47 0 237 -20 277 -30 23 -6 -8 -7 -85
-5 -119 4 -119 4 -66 -10 30 -7 88 -17 128 -21 68 -6 76 -5 94 15 24 26 70 27
110 4 36 -22 49 -10 21 20 -27 28 -30 93 -7 138 33 63 132 91 170 49 10 -11
21 -20 25 -20 4 0 13 26 19 58 21 109 115 183 214 168 38 -6 89 -39 76 -50 -2
-1 -13 -8 -24 -15 -18 -11 -17 -12 8 -6 16 3 34 2 40 -3 7 -5 28 -12 46 -16
53 -10 77 -31 97 -82 l18 -47 -55 -48 c-54 -48 -50 -67 6 -28 83 56 124 70
228 76 119 6 159 -2 241 -52 67 -40 66 -40 66 -20 0 8 14 41 31 73 28 54 30
62 19 98 -9 30 -8 57 2 119 l14 80 55 -75 c30 -41 58 -80 62 -87 5 -7 -8 -32
-29 -60 -69 -90 -123 -240 -124 -343 l0 -45 -25 52 c-30 67 -95 130 -171 168
-51 25 -71 30 -140 30 -80 0 -81 0 -138 -44 -51 -39 -59 -43 -82 -32 -31 14
-104 14 -141 0 -38 -14 -72 -47 -88 -85 -12 -29 -17 -32 -89 -43 -42 -6 -90
-11 -106 -11 -16 0 -32 -4 -35 -10 -7 -12 26 -13 154 -3 l91 6 19 43 c23 51
62 74 126 74 36 0 51 -6 71 -25 26 -26 44 -25 44 0 0 20 50 63 80 69 14 3 45
7 70 10 38 5 42 4 23 -6 -13 -6 -23 -15 -23 -19 0 -11 43 -40 49 -33 3 3 -1
10 -9 15 -12 9 -12 10 3 5 10 -3 23 -6 29 -6 6 0 3 -9 -8 -21 -19 -21 -18 -21
12 -47 58 -50 74 -62 85 -62 5 0 7 -5 4 -11 -9 -13 26 -40 44 -33 11 4 11 2 1
-10 -10 -13 -9 -18 3 -30 8 -8 17 -12 21 -9 3 4 6 0 6 -7 0 -8 10 -25 23 -39
15 -17 7 -14 -23 10 -40 32 -159 99 -176 99 -3 0 -3 -7 0 -16 5 -14 4 -15 -9
-4 -8 7 -13 16 -10 20 3 4 -4 10 -16 13 -17 4 -19 2 -13 -16 6 -21 6 -21 -13
-4 -11 9 -28 17 -39 16 -17 0 -17 -1 2 -9 12 -4 24 -16 28 -26 6 -17 5 -17
-14 1 -20 18 -20 18 -20 -4 0 -12 -4 -20 -10 -16 -5 3 -7 12 -4 20 3 7 -3 18
-15 24 -28 16 -36 14 -20 -6 13 -15 12 -15 -8 -5 -35 19 -36 14 -7 -25 l28
-38 -36 34 c-47 44 -70 37 -32 -9 l29 -35 -33 28 c-36 29 -57 35 -49 13 3 -7
0 -13 -6 -13 -7 0 -21 -1 -31 -1 -19 -2 -19 -2 0 -23 19 -22 19 -22 -2 -11
-16 9 -26 8 -43 -4 -12 -9 -19 -20 -15 -25 3 -5 2 -9 -3 -8 -32 6 -63 -42 -42
-67 16 -20 44 -18 140 11 126 39 227 43 323 15 42 -13 80 -28 83 -33 4 -6 0
-8 -11 -4 -9 4 -42 14 -74 23 -137 40 -359 -12 -492 -115 -24 -19 -24 -20 -6
-40 23 -26 40 -27 32 -3 -5 14 -4 14 9 -2 15 -20 15 -20 15 0 1 18 1 18 14 2
18 -24 35 -22 46 5 l9 22 0 -22 c1 -38 31 -28 32 10 l1 32 7 -30 c9 -43 37
-40 33 3 -1 20 2 31 8 27 5 -3 10 -17 10 -30 0 -45 31 -38 43 10 3 15 5 13 6
-8 1 -36 32 -34 42 3 l7 25 1 -27 c1 -28 31 -42 31 -15 0 8 6 14 14 14 8 0 12
-6 9 -14 -10 -25 45 -15 63 12 23 35 28 25 10 -18 -18 -45 -49 -61 -173 -91
-67 -16 -115 -22 -154 -19 -67 6 -123 -18 -165 -71 -26 -32 -28 -33 -55 -19
-38 19 -79 9 -114 -27 -26 -27 -29 -28 -50 -14 -99 65 -224 10 -240 -105 -8
-57 -10 -59 -140 -64 -51 -2 -41 -4 36 -5 114 -2 119 0 119 50 0 70 83 136
155 122 20 -3 49 -17 64 -29 l27 -23 32 39 c28 33 39 39 72 39 32 0 42 -5 53
-25 l13 -26 34 46 c56 75 119 102 171 74 14 -7 24 -7 33 0 7 6 44 17 83 25 90
19 155 44 218 85 66 42 115 54 187 46 56 -7 73 -25 22 -25 -14 0 -37 -6 -52
-14 -38 -20 -96 -82 -88 -95 11 -17 56 -13 56 5 0 8 5 12 10 9 6 -4 8 -11 5
-16 -4 -5 1 -9 9 -9 9 0 16 5 16 10 0 6 8 10 19 10 10 0 35 16 55 35 21 19 42
35 47 35 11 0 112 -100 106 -106 -1 -2 -23 -6 -48 -9 -93 -10 -128 -18 -123
-26 7 -12 -50 -39 -81 -39 -15 0 -42 12 -61 27 -23 17 -52 28 -84 31 -64 6
-93 -2 -133 -38 -25 -21 -44 -29 -73 -29 -21 0 -51 0 -66 0 -15 -1 -41 -13
-60 -30 -18 -15 -48 -32 -66 -36 -23 -5 -42 -19 -60 -45 -35 -50 -88 -80 -142
-80 -23 0 -51 -5 -63 -12 -12 -6 -37 -11 -54 -9 -26 2 -33 -1 -34 -16 -1 -16
-2 -17 -6 0 -11 44 -133 -3 -181 -70 -12 -17 -42 -37 -74 -49 -105 -42 -220
-76 -228 -67 -4 4 -24 53 -44 108 -86 234 -250 433 -428 518 -89 42 -138 81
-138 110 1 35 42 127 89 196 54 79 114 206 137 291 25 90 25 308 0 400 -73
267 -308 485 -572 531 -99 17 -282 7 -364 -21 -304 -102 -497 -352 -517 -670
-11 -179 36 -340 152 -526 39 -61 71 -126 80 -160 l15 -58 -33 -28 c-17 -15
-72 -49 -122 -75 -184 -97 -364 -329 -430 -555 -9 -32 -20 -60 -24 -63 -5 -2
-35 4 -66 15 -32 11 -68 20 -79 20 -12 0 -36 9 -54 20 -18 11 -42 20 -55 20
-14 0 -33 15 -52 41 -16 22 -49 51 -73 65 -37 22 -53 25 -122 23 -44 -1 -85 3
-92 8 -7 6 -36 13 -65 15 -59 6 -113 40 -138 89 -9 16 -24 29 -33 29 -10 0
-37 14 -59 30 -43 32 -75 41 -155 43 -36 2 -53 8 -76 30 -54 52 -116 51 -224
-3 l-56 -28 -42 20 c-23 12 -44 27 -47 34 -3 8 -11 14 -19 14 -11 0 -11 -5 -3
-24 11 -23 108 -76 139 -76 15 0 50 -29 50 -42 0 -15 -28 -9 -34 8 -4 12 -14
14 -36 9 -24 -5 -29 -4 -24 8 3 10 -4 17 -23 22 -15 3 -31 11 -34 17 -10 16
-96 27 -109 14 -7 -7 -10 -6 -10 2 0 7 5 12 11 12 5 0 7 5 3 12 -4 7 -3 8 5 4
10 -6 41 14 41 27 0 3 -25 8 -55 12 -33 4 -55 11 -55 19 0 6 20 31 44 55 49
48 58 47 110 -8 33 -35 70 -45 126 -36 l40 7 -32 40 c-34 43 -80 68 -125 68
-48 0 -11 19 42 21 90 4 110 -1 180 -42 84 -51 157 -77 235 -86 37 -3 61 -11
64 -20 4 -10 10 -11 25 -3 31 16 93 12 129 -10 18 -11 47 -40 64 -65 l31 -44
23 24 c36 39 84 34 124 -11 l32 -36 33 32 c42 41 97 49 142 21 45 -28 63 -61
70 -125 l6 -56 81 2 81 1 -67 6 c-36 3 -68 8 -70 11 -3 3 -10 34 -16 70 -10
58 -16 69 -54 104 -49 44 -57 44 117 -3 176 -48 258 -36 106 15 -94 32 -151
61 -151 77 0 39 115 93 169 80 14 -3 44 -14 66 -25 l40 -19 -35 30 c-38 33
-85 47 -122 36 -40 -12 -122 -54 -152 -79 l-30 -23 -49 37 c-62 48 -183 116
-219 124 -67 15 -6 -66 85 -114 47 -25 59 -40 33 -40 -28 0 -29 -23 -4 -45
l25 -21 -38 -32 -37 -32 -32 30 c-25 23 -41 30 -73 30 -22 0 -48 -7 -57 -15
-14 -13 -20 -10 -54 31 -51 61 -86 74 -193 74 -91 0 -216 27 -261 56 -23 15
-62 71 -62 88 0 6 12 -2 28 -16 16 -16 38 -26 55 -26 26 0 28 3 23 27 l-6 26
16 -22 c20 -27 34 -30 34 -5 1 12 5 9 16 -10 20 -38 27 -35 20 10 l-5 37 19
-40 19 -40 0 35 1 35 22 -35 23 -35 3 35 4 35 13 -32 c8 -18 19 -33 26 -33 11
0 10 12 -6 55 -4 11 2 6 13 -11 25 -39 42 -50 52 -34 5 9 9 9 14 1 13 -20 28
-11 24 14 -3 13 -1 22 3 19 5 -3 9 -12 9 -20 0 -16 2 -16 24 -8 43 17 5 58
-99 109 -164 80 -282 85 -490 20 -11 -3 -3 3 17 14 105 59 249 66 391 21 106
-34 124 -36 151 -15 26 20 11 51 -45 96 -24 19 -40 29 -37 23 4 -6 2 -11 -5
-11 -7 0 -21 -4 -32 -8 -16 -7 -15 -4 5 12 14 12 22 25 18 29 -4 4 -14 1 -23
-6 -13 -11 -14 -10 -9 4 10 26 -24 31 -50 7 -12 -11 -26 -21 -31 -21 -5 0 1
10 14 21 16 15 19 25 12 32 -7 7 -17 3 -31 -14 -19 -22 -20 -22 -11 -2 16 33
13 50 -5 27 -8 -10 -13 -13 -9 -6 3 6 2 12 -2 12 -5 0 -15 -6 -22 -12 -10 -11
-11 -10 -6 3 4 12 -2 15 -29 15 -19 0 -33 -3 -30 -7 2 -5 -6 -13 -18 -20 -19
-9 -21 -9 -10 2 21 22 13 28 -25 17 -53 -14 -150 -64 -198 -102 -37 -29 -38
-30 -20 -5 11 15 24 25 29 22 4 -3 5 4 1 16 -5 16 -3 20 8 15 18 -7 30 22 21
50 -6 19 -5 19 11 6 15 -13 19 -12 31 4 7 11 11 23 8 27 -3 5 0 9 6 9 6 0 33
19 60 42 40 35 47 45 37 57 -10 12 -9 14 6 8 9 -3 17 -2 17 2 0 17 73 52 96
47 29 -8 84 -54 84 -71 0 -27 22 -27 46 -1 19 20 34 26 65 26 75 0 128 -37
144 -101 6 -24 9 -24 141 -27 144 -3 176 11 52 22 -141 12 -157 17 -181 60
-32 57 -64 77 -135 83 -48 4 -67 2 -87 -11 -25 -17 -27 -16 -45 6 -29 37 -118
81 -164 81 -91 0 -231 -71 -280 -142 -14 -20 -34 -54 -45 -76 l-20 -40 -1 49
c0 57 -33 182 -62 241 -11 22 -38 63 -59 91 -22 28 -39 55 -39 60 0 6 22 37
48 70 27 33 53 68 59 77 7 14 13 1 27 -57 15 -62 15 -81 5 -109 -11 -31 -9
-40 27 -114 l39 -81 42 29 c63 44 150 63 260 56 94 -5 111 -11 236 -78 59 -33
65 -17 9 24 -61 43 -72 73 -45 119 30 51 77 73 156 73 56 0 64 2 50 13 -9 6
-25 12 -34 12 -33 0 -29 18 7 40 97 60 258 -32 272 -155 6 -56 15 -62 48 -36
98 77 241 -84 163 -183 -27 -34 -17 -45 20 -23 43 25 86 22 108 -8 l18 -25
102 15 c56 9 119 22 140 30 37 15 35 15 -52 10 -49 -3 -108 -8 -130 -10 -29
-4 -34 -3 -20 4 22 10 215 31 282 31 23 0 44 3 47 8 5 9 -189 4 -289 -7 -60
-7 -76 -5 -112 12 -35 17 -43 26 -43 49 0 21 5 28 20 28 11 0 82 11 156 25 74
14 156 25 182 25 26 0 54 5 62 10 10 6 -36 10 -140 10 -184 0 -321 10 -314 21
3 5 26 10 52 10 42 2 41 2 -18 9 -36 3 -74 11 -84 17 -17 10 -16 11 15 18 19
4 81 11 139 16 81 6 58 7 -100 4 -117 -2 -194 0 -180 5 14 4 117 9 230 10 277
2 354 13 166 23 -77 4 -205 7 -285 8 -80 0 -155 4 -166 9 -19 8 87 6 508 -9
184 -6 252 1 120 13 -103 9 -391 34 -548 47 -77 6 -147 15 -155 20 -8 4 81 6
200 4 266 -5 209 8 -105 25 -327 17 -303 31 45 26 162 -2 275 -2 250 0 -25 2
-142 13 -260 24 -118 11 -281 24 -362 30 -184 14 -297 26 -305 34 -17 17 383
-10 592 -39 108 -16 606 -48 613 -40 5 5 -15 9 -168 34 -69 12 -102 19 -75 16
57 -5 262 -32 315 -41 19 -4 32 -4 29 0 -12 13 -159 44 -354 76 -569 93 -585
96 -585 120 0 5 11 5 28 0 35 -11 362 -55 557 -75 83 -8 170 -18 195 -21 25
-4 43 -4 40 -1 -5 4 -107 23 -355 62 -294 48 -815 166 -815 186 0 13 13 12
150 -21 320 -75 461 -102 765 -145 99 -14 226 -34 283 -46 56 -11 108 -19 114
-17 27 9 -291 84 -712 168 -340 67 -529 115 -513 131 5 5 64 -5 148 -25 140
-35 253 -58 550 -116 88 -16 171 -33 185 -35 22 -5 22 -4 -5 10 -16 8 -149 44
-295 79 -252 62 -509 131 -519 141 -16 17 23 11 145 -20 76 -20 184 -40 239
-45 55 -6 116 -12 135 -16 70 -11 4 16 -102 41 -147 35 -345 104 -301 105 7 0
30 -6 50 -14 63 -24 181 -52 313 -75 69 -12 179 -33 245 -46 66 -14 125 -25
130 -24 23 1 -113 40 -260 73 -165 37 -308 76 -302 83 2 1 73 -13 158 -33 420
-97 516 -126 698 -208 57 -26 106 -45 108 -42 7 6 -136 79 -261 134 -55 24
-172 67 -260 96 -164 54 -390 150 -452 193 -19 12 -38 23 -43 23 -50 0 -554
-420 -538 -447 4 -6 22 -13 42 -16 45 -7 95 -43 95 -67 0 -11 -13 -35 -30 -53
-16 -19 -30 -46 -30 -60 0 -20 -4 -24 -20 -20 -11 3 -23 10 -27 16 -3 6 -1 7
5 3 8 -5 12 0 12 13 0 11 -5 23 -10 26 -21 13 -10 24 15 15 22 -8 27 -6 40 20
23 44 19 57 -20 64 -60 12 -105 -5 -203 -71 -51 -35 -100 -63 -107 -61 -17 4
73 108 234 272 407 416 944 730 1529 895 176 50 475 102 662 115 103 7 395 -4
510 -19z m-179 -955 c89 -33 244 -145 290 -208 40 -56 60 -130 60 -220 0 -90
-6 -121 -32 -174 -27 -53 -41 -57 -23 -6 22 59 30 222 14 289 -12 52 -61 152
-80 164 -5 3 -3 -10 6 -30 28 -67 35 -137 28 -264 -6 -117 -7 -122 -20 -92
-56 133 -217 221 -402 221 -185 0 -322 -69 -396 -200 l-26 -45 0 35 c0 26 11
49 44 91 67 86 205 149 326 149 36 0 40 3 40 24 0 27 -10 36 -55 51 -66 22
-53 135 15 135 28 0 30 2 30 39 l0 38 -52 -9 c-78 -14 -155 -56 -216 -117 -71
-70 -102 -139 -109 -239 -7 -98 -19 -122 -28 -58 -12 76 0 175 27 236 41 90
164 177 292 206 79 18 197 11 267 -16z m2 -392 c31 -15 57 -29 57 -33 0 -3
-18 4 -41 15 -23 12 -66 23 -102 25 -64 4 -59 1 30 -16 40 -8 64 -21 101 -54
27 -25 51 -42 54 -39 18 18 58 -110 58 -187 0 -53 -36 -179 -51 -179 -5 0 -9
-6 -8 -12 4 -37 -5 -47 -11 -13 l-8 40 0 -45 c0 -25 -1 -56 -2 -70 -2 -21 -4
-19 -10 10 l-7 35 -2 -40 c-2 -47 -20 -86 -21 -45 0 14 -8 36 -16 50 -8 14
-13 18 -10 9 12 -41 17 -107 9 -112 -5 -4 -17 18 -26 47 -10 29 -28 65 -42 80
-22 24 -30 26 -112 26 -114 0 -140 -18 -158 -106 l-12 -59 -8 40 c-7 33 -4 47
17 84 13 25 36 54 50 64 25 19 27 19 73 2 31 -13 49 -15 53 -8 10 15 82 34 82
22 0 -6 5 -7 10 -4 7 4 7 13 0 26 -6 11 -8 24 -4 30 3 6 -3 19 -15 30 -21 20
-27 61 -15 106 5 19 9 20 35 11 20 -7 39 -6 65 2 45 15 29 30 -33 30 -24 0
-43 4 -43 9 0 13 97 6 114 -8 10 -8 21 -9 31 -4 26 15 -24 53 -81 62 -46 7
-47 8 -21 16 39 10 96 0 129 -25 32 -24 34 -21 13 20 -21 41 -63 60 -133 60
-79 0 -120 -15 -128 -47 -4 -14 -2 -69 3 -121 9 -82 14 -97 34 -113 l24 -18
-38 -16 c-44 -18 -110 -7 -126 23 -9 16 -10 16 -16 0 -4 -10 -5 -25 -1 -33 3
-9 -7 -29 -22 -48 -59 -67 -72 -94 -73 -144 -1 -39 -3 -43 -9 -23 -4 14 -9 43
-10 65 l-3 40 -6 -35 c-7 -39 -5 -43 -40 63 -13 38 -15 57 -7 57 8 0 8 2 0 8
-27 17 -54 102 -54 170 0 153 62 247 193 294 78 28 213 21 290 -14z m-588
-442 c-10 -61 -18 -156 -18 -211 0 -106 15 -160 77 -283 30 -60 44 -70 20 -14
-23 53 -64 165 -64 175 0 4 19 -30 43 -75 24 -46 65 -118 91 -161 103 -169
132 -271 108 -372 -9 -35 -10 -36 -11 -11 -2 43 -30 145 -53 190 -11 23 -60
100 -108 173 -149 224 -171 323 -124 558 21 104 47 183 52 161 2 -10 -4 -69
-13 -130z m884 -9 c54 -263 30 -372 -125 -590 -96 -134 -133 -208 -148 -298
-11 -67 -13 -71 -19 -40 -25 122 -4 184 148 431 32 52 71 131 87 175 24 67 28
73 23 35 -4 -25 -20 -78 -36 -119 -40 -101 -31 -114 10 -15 53 124 58 179 37
346 -11 79 -20 163 -22 188 l-4 45 16 -33 c8 -19 23 -75 33 -125z m2492 54
c17 -33 55 -111 84 -175 l53 -114 -53 5 c-35 4 -70 0 -106 -11 -66 -21 -165
-87 -161 -107 2 -8 0 -11 -4 -6 -4 4 -16 0 -26 -10 -11 -10 -18 -12 -18 -4 0
6 24 35 53 65 42 43 68 59 140 86 48 19 87 38 87 43 0 17 -62 157 -70 157 -4
0 -10 -10 -14 -23 -3 -13 -30 -50 -61 -83 l-55 -59 40 79 c21 43 47 109 57
147 9 38 18 69 20 69 1 0 16 -27 34 -59z m-5841 -48 c17 -54 43 -113 57 -130
13 -18 21 -33 18 -33 -19 0 -71 48 -97 89 -16 25 -31 45 -34 44 -6 -2 -76
-156 -71 -158 1 0 18 -6 37 -14 19 -7 64 -23 99 -36 72 -26 120 -66 138 -115
12 -33 12 -33 -35 14 -26 26 -60 55 -77 63 l-30 16 20 -23 c16 -17 8 -15 -34
11 -48 30 -62 34 -123 34 -69 0 -69 0 -63 25 10 38 145 310 154 310 4 0 23
-44 41 -97z m2999 -131 c35 -25 46 -66 30 -104 -11 -27 -14 -29 -20 -12 -7 17
-8 17 -8 -3 -1 -23 -21 -43 -21 -21 0 8 -5 6 -11 -4 -15 -26 -27 -22 -32 10
-4 25 -4 25 -6 -5 -1 -42 -26 -35 -36 10 l-8 32 -6 -37 c-6 -37 -21 -41 -34
-8 -3 10 -6 7 -6 -8 -1 -30 -23 -24 -32 9 l-7 24 -2 -25 c-2 -21 -4 -19 -10
10 -6 28 -8 30 -9 10 l-2 -25 -16 30 c-31 57 -16 105 42 132 41 18 161 9 194
-15z m-294 -292 c82 -91 283 -112 364 -38 26 24 29 26 12 6 -27 -31 -20 -35
22 -14 15 8 27 13 27 11 0 -13 -54 -52 -109 -78 -86 -41 -172 -42 -257 -3 -58
27 -104 61 -104 78 0 5 21 -3 47 -17 70 -37 73 -31 12 25 -30 27 -49 49 -43
50 6 0 19 -9 29 -20z m3287 -16 c35 -6 39 -11 59 -63 55 -147 117 -416 144
-623 34 -266 39 -438 21 -686 -19 -253 -24 -280 -49 -296 -33 -21 -41 5 -29
96 50 362 29 825 -55 1182 -14 62 -20 71 -59 99 -52 36 -55 47 -14 47 17 0 30
2 30 6 0 3 -7 35 -15 72 -21 89 -46 129 -98 152 l-42 20 35 0 c19 0 52 -3 72
-6z m-6162 -25 c-46 -28 -56 -43 -73 -109 -31 -113 -31 -110 2 -110 44 0 44
-13 1 -40 -59 -37 -67 -56 -109 -295 -40 -225 -46 -296 -45 -575 0 -189 5
-307 15 -376 16 -104 11 -144 -15 -144 -44 0 -61 148 -60 520 0 312 7 392 60
660 26 138 81 344 114 433 l21 57 62 0 62 0 -35 -21z m396 -36 c-8 -15 -47
-59 -87 -98 -39 -38 -82 -89 -96 -112 -14 -24 -30 -40 -35 -36 -7 3 -8 1 -4
-6 10 -16 -3 -53 -16 -45 -6 4 -8 2 -5 -3 4 -6 -2 -40 -12 -75 -31 -103 -42
-193 -40 -329 l2 -129 26 -1 c26 -2 26 -2 2 -6 -32 -6 -66 -28 -116 -72 l-39
-36 37 47 37 46 1 159 c2 203 16 266 20 88 l2 -130 7 130 c14 249 43 342 147
457 90 100 177 188 181 184 2 -2 -3 -17 -12 -33z m3252 -59 c154 -37 349 -269
426 -508 35 -106 34 -136 -3 -66 -42 82 -268 407 -277 397 -1 -1 2 -51 6 -112
9 -117 2 -377 -10 -370 -4 3 -10 24 -13 47 -56 451 -69 520 -103 548 -12 11
-14 6 -14 -27 0 -41 -32 -181 -48 -209 -6 -10 -7 22 -4 82 5 115 -5 163 -49
222 l-31 43 -19 -33 c-69 -119 -80 -186 -50 -311 11 -48 37 -127 57 -175 66
-157 116 -322 98 -322 -6 0 -48 95 -104 237 -47 118 -60 164 -79 283 l-9 55
-2 -70 c-3 -125 1 -178 25 -300 24 -120 33 -200 24 -209 -9 -9 -77 178 -93
256 -21 102 -21 306 -1 376 9 28 38 84 66 124 28 40 58 85 67 99 l16 26 49
-38 c27 -22 61 -42 75 -45z m2135 16 c37 -38 63 -62 60 -52 -14 39 112 -128
138 -183 45 -95 71 -237 76 -417 4 -111 2 -158 -6 -158 -6 0 -9 13 -5 33 4 28
3 29 -6 9 -21 -48 -30 -9 -30 126 0 113 -5 154 -25 235 -14 54 -32 112 -41
128 -8 17 -14 35 -11 42 2 6 18 -22 35 -63 17 -41 31 -68 31 -60 1 51 -119
257 -141 244 -4 -3 -8 0 -8 6 0 6 -30 41 -66 78 -67 69 -92 102 -76 102 5 0
39 -31 75 -70z m-3130 -29 c94 -125 100 -140 105 -304 4 -129 -5 -220 -27
-287 -27 -79 -76 -190 -83 -190 -11 0 -2 67 23 179 31 136 43 258 32 321 -10
54 -11 54 -12 14 -2 -87 -51 -232 -152 -453 -72 -157 -27 42 54 240 70 169 93
274 78 354 -11 60 -45 127 -79 158 -20 18 -21 17 -54 -50 -30 -61 -33 -76 -32
-149 1 -45 4 -94 8 -110 l6 -29 -15 27 c-19 34 -45 142 -45 191 0 44 -21 50
-39 11 -19 -43 -30 -103 -51 -295 -12 -101 -24 -209 -29 -239 l-7 -55 -9 90
c-5 50 -9 164 -10 255 l0 165 -38 -55 c-22 -30 -64 -93 -94 -140 -31 -47 -66
-97 -79 -112 -12 -15 -35 -53 -50 -84 -15 -32 -29 -53 -31 -47 -7 20 48 184
84 250 93 172 195 279 326 343 45 22 96 51 112 64 17 14 32 25 35 26 3 0 35
-40 73 -89z m-1674 -188 c6 -10 11 -12 11 -5 0 22 33 13 67 -20 18 -17 41 -32
52 -33 11 -1 39 -27 67 -64 45 -59 49 -63 81 -58 48 8 122 -20 134 -50 12 -32
11 -36 -3 -27 -10 6 -10 4 0 -7 14 -15 16 -29 3 -29 -5 0 -13 9 -16 20 -8 25
-35 27 -35 3 0 -15 -2 -16 -9 -3 -6 8 -7 18 -5 22 3 4 0 16 -6 25 -9 16 -10
15 -5 -4 4 -14 2 -23 -4 -23 -11 0 -15 13 -12 39 2 7 -4 11 -11 9 -7 -3 -12
-12 -10 -22 2 -9 -2 -16 -8 -16 -6 0 -8 5 -4 11 4 8 -1 9 -17 4 -18 -5 -20 -4
-9 4 8 5 11 13 7 17 -3 4 -13 2 -20 -5 -11 -9 -17 -8 -26 3 -7 8 -19 12 -27 9
-12 -4 -13 0 -5 19 11 30 0 51 -23 42 -14 -5 -16 -2 -10 20 5 21 3 26 -12 25
-11 0 -14 -3 -6 -6 17 -7 15 -23 -3 -23 -8 0 -15 -6 -15 -12 0 -8 -5 -6 -10 4
-7 11 -19 15 -35 12 -19 -3 -23 -1 -18 12 4 11 13 14 30 9 18 -4 24 -2 21 7
-3 8 -16 12 -34 10 -27 -3 -28 -3 -10 11 18 14 18 14 0 22 -18 8 -28 9 -78 13
-14 2 -16 5 -7 16 9 11 6 14 -14 14 -14 0 -25 -4 -25 -9 0 -5 -9 -9 -20 -9
-11 0 -20 4 -20 8 0 33 82 45 99 15z m2176 -232 c47 -21 108 -85 131 -138 11
-26 16 -65 16 -120 0 -81 1 -83 24 -83 15 0 24 -6 24 -15 0 -11 -12 -15 -51
-15 -45 0 -50 2 -44 18 4 9 10 39 14 65 24 147 -71 270 -208 270 -91 0 -162
-46 -197 -128 -20 -46 -23 -170 -5 -204 11 -20 10 -21 -39 -21 -38 0 -50 4
-50 15 0 9 9 15 23 15 21 0 22 4 22 88 0 75 4 94 28 139 59 113 201 165 312
114z m-1947 -134 c32 -32 32 -34 19 -66 -15 -36 -33 -27 -22 12 6 22 6 22 -13
-2 -17 -20 -19 -21 -19 -5 0 11 -1 33 -2 49 -3 30 -3 30 -11 5 -7 -21 -8 -22
-9 -5 -2 18 -3 18 -17 -5 -15 -24 -15 -24 -11 -2 4 17 1 22 -11 20 -12 -2 -16
3 -15 17 1 11 0 14 -3 8 -3 -7 -12 -13 -20 -13 -10 0 -11 -6 -4 -26 7 -16 7
-23 0 -19 -6 3 -10 1 -10 -5 0 -7 -7 -5 -16 4 -21 21 -21 21 -17 -16 l4 -33
-15 30 -14 30 -1 -30 -1 -30 -20 25 c-18 23 -20 23 -20 5 0 -16 -2 -17 -9 -5
-6 8 -7 18 -4 23 3 5 -4 3 -16 -5 -12 -7 -21 -16 -21 -20 0 -5 -4 -8 -10 -8
-5 0 -7 6 -4 14 6 15 48 37 79 41 11 2 27 6 36 10 10 3 20 2 24 -4 3 -6 11
-11 17 -11 7 0 7 4 -1 14 -8 10 -8 16 2 24 46 38 103 30 155 -21z m1920 33
c44 -27 72 -76 72 -128 0 -79 -49 -135 -129 -148 -35 -6 -40 -4 -35 9 3 9 20
21 38 27 69 22 108 97 81 154 -17 36 -62 66 -98 66 -34 0 -90 -40 -97 -70 -9
-35 9 -70 36 -70 24 0 34 17 34 56 0 35 29 43 52 15 10 -13 18 -27 18 -33 0
-19 -50 -58 -75 -58 -14 0 -34 -6 -45 -12 -52 -33 -87 90 -43 150 43 59 131
79 191 42z m1933 -16 c21 -14 54 -27 75 -29 34 -4 90 -42 78 -54 -3 -3 -14 5
-25 19 -17 22 -19 23 -17 5 4 -25 -21 -27 -45 -3 -24 24 -40 23 -32 -2 4 -11
2 -20 -4 -20 -6 0 -11 12 -12 28 0 15 -3 21 -6 15 -7 -19 -25 -16 -22 5 3 30
-1 42 -12 42 -5 0 -7 -4 -4 -10 3 -5 -1 -10 -9 -10 -9 0 -16 -5 -16 -11 0 -6
-7 -3 -16 5 -8 9 -18 16 -22 16 -3 0 -1 -5 6 -12 7 -7 11 -26 11 -42 -2 -30
-2 -30 -6 -4 -5 34 -33 60 -34 32 0 -11 -3 -14 -6 -6 -2 6 -9 12 -15 12 -6 0
-7 -7 -4 -16 5 -12 2 -15 -10 -10 -12 5 -14 1 -8 -17 3 -12 3 -19 -1 -15 -9 8
-33 -13 -30 -27 1 -5 0 -7 -2 -2 -3 4 -12 7 -20 7 -10 0 -13 -6 -9 -17 4 -12
-1 -9 -15 7 -14 16 -19 19 -15 8 4 -15 0 -17 -30 -13 -21 2 -32 0 -29 -5 4 -6
2 -10 -4 -10 -5 0 -11 5 -13 12 -3 7 -7 6 -11 -5 -4 -11 -1 -17 8 -17 7 0 17
-5 21 -11 4 -6 -1 -9 -12 -8 -11 2 -25 0 -31 -4 -8 -5 -13 -4 -13 2 0 6 -7 11
-17 11 -14 0 -14 -3 3 -22 15 -19 16 -20 2 -9 -16 12 -18 11 -18 -13 0 -14 -4
-26 -8 -26 -10 0 -8 62 2 79 5 7 14 10 21 7 7 -2 16 1 19 9 3 8 16 21 31 31
21 14 28 14 42 3 14 -12 16 -12 8 0 -7 12 0 13 39 8 49 -7 49 -7 60 43 6 31
68 69 110 70 17 0 47 -12 67 -26z m-621 -14 c0 -5 -10 -12 -23 -15 -22 -6 -65
-65 -47 -65 6 0 28 18 51 41 22 22 44 38 47 34 4 -4 -3 -15 -15 -25 -13 -10
-23 -23 -23 -29 0 -6 -5 -11 -10 -11 -6 0 -20 -11 -32 -25 -12 -14 -30 -25
-41 -25 -16 0 -18 -5 -12 -27 5 -22 4 -25 -8 -14 -12 9 -16 8 -22 -6 -5 -10
-7 -22 -6 -26 1 -5 -3 -6 -8 -3 -5 4 -11 2 -13 -4 -2 -7 -14 -7 -37 0 -27 7
-32 7 -23 -2 7 -7 12 -19 12 -27 0 -13 -2 -13 -9 -2 -6 9 -11 10 -15 2 -4 -6
-4 -15 -1 -21 3 -6 -1 -7 -10 -4 -11 5 -14 2 -9 -11 6 -14 3 -16 -16 -10 -19
6 -22 4 -17 -9 4 -10 3 -15 -2 -12 -5 3 -12 -6 -16 -21 -6 -24 -8 -25 -16 -11
-10 18 7 68 23 68 13 0 38 26 38 39 0 6 5 11 10 11 6 0 10 6 10 13 0 15 77 70
88 63 10 -6 37 10 38 24 1 5 2 15 3 21 0 5 5 8 10 5 11 -7 32 40 25 58 -3 8
-13 12 -22 9 -14 -4 -15 -3 -2 5 8 6 18 8 22 6 4 -3 8 -1 8 5 0 5 12 11 28 13
31 4 42 1 42 -12z m1757 -135 c35 -37 43 -52 42 -83 0 -29 -2 -33 -9 -17 -9
23 -90 104 -90 90 1 -6 7 -35 14 -65 7 -31 12 -84 10 -118 -1 -34 1 -62 7 -62
5 0 9 26 9 58 0 39 3 52 10 42 5 -8 12 -11 16 -8 3 4 -3 19 -15 34 -30 38 -26
52 5 15 25 -30 25 -31 10 -76 -9 -25 -19 -64 -22 -88 -6 -41 -6 -41 30 28 20
39 45 81 56 95 33 42 22 2 -16 -60 -22 -36 -33 -64 -28 -72 4 -7 3 -9 -1 -5
-5 4 -17 -9 -27 -29 -15 -31 -18 -66 -19 -208 -2 -128 -4 -156 -9 -111 -4 33
-8 126 -9 206 -1 110 -6 165 -21 224 -11 43 -20 97 -20 120 0 66 12 135 23
135 6 0 30 -20 54 -45z m-6223 -77 c-1 -58 -7 -130 -14 -160 -7 -31 -12 -139
-12 -258 0 -113 -2 -198 -4 -190 -2 8 -8 87 -12 175 l-9 161 -52 101 c-29 56
-51 107 -49 113 2 6 30 -33 62 -87 39 -67 56 -88 53 -68 -3 17 1 78 8 137 8
59 11 117 7 129 -8 20 -10 20 -25 5 -8 -9 -21 -32 -28 -51 -16 -43 -29 -45
-29 -5 0 35 64 113 89 108 14 -3 16 -20 15 -110z m6065 -83 c19 -33 43 -172
40 -230 -2 -29 -28 123 -28 168 -1 20 -6 37 -12 37 -6 0 -8 -7 -5 -16 3 -9 9
-105 11 -213 4 -146 3 -190 -5 -171 -16 35 -42 460 -28 460 3 0 15 -16 27 -35z
m-2535 -12 c252 -7 297 -17 218 -48 -23 -10 -49 -27 -57 -39 -15 -20 -25 -21
-275 -27 -143 -3 -263 -9 -267 -12 -3 -4 83 -7 193 -7 111 0 206 -5 214 -10
10 -6 -44 -10 -162 -10 -112 0 -178 -4 -178 -10 0 -6 59 -10 158 -10 86 0 164
-5 172 -10 10 -6 -45 -10 -165 -10 -211 -1 -220 -17 -13 -22 75 -1 134 -6 130
-9 -4 -4 -68 -10 -142 -14 -74 -4 -137 -9 -139 -11 -5 -4 153 -9 207 -6 17 1
32 -2 32 -7 0 -16 -67 -41 -112 -42 l-43 -1 50 -15 c37 -11 141 -17 405 -24
195 -5 360 -11 365 -14 13 -7 -710 4 -755 11 -27 4 -31 3 -18 -6 24 -15 338
-28 888 -37 471 -8 473 -8 265 -16 -115 -4 -392 -6 -615 -4 -284 2 -371 1
-290 -5 63 -5 309 -7 545 -4 237 3 594 8 795 10 l365 4 -295 -8 c-162 -5 -385
-14 -495 -20 -110 -6 -337 -11 -505 -11 -168 -1 -366 -5 -440 -8 -103 -6 -48
-8 236 -9 406 -2 664 -11 624 -23 -14 -4 72 -8 190 -9 118 -2 283 -5 365 -9
l150 -6 -155 -7 c-85 -4 -432 -12 -770 -18 -338 -6 -626 -12 -640 -14 -14 -1
248 -3 581 -4 333 0 618 -4 632 -8 15 -3 265 -10 555 -14 l527 -8 -595 0
c-1221 0 -1681 -4 -1580 -14 52 -5 331 -7 620 -5 289 3 563 1 608 -3 46 -5
278 -12 515 -16 988 -15 429 -32 -1245 -37 l-1028 -3 -4 31 c-2 16 -9 71 -14
122 -6 50 -17 104 -25 119 -11 21 -12 34 -3 56 20 53 -30 93 -53 42 -10 -22
-9 -30 4 -44 15 -17 15 -21 1 -42 -16 -24 -46 -177 -46 -235 0 -26 -5 -35 -22
-41 -35 -13 -2789 2 -2812 15 -21 11 464 21 1656 31 399 4 730 10 734 15 4 4
-501 8 -1122 9 -900 1 -1040 3 -689 9 242 4 584 10 760 13 176 4 482 7 680 8
l360 2 -455 7 c-250 4 -574 12 -720 18 -146 6 -287 11 -314 11 -27 0 -47 2
-44 5 3 3 183 8 399 11 216 3 395 7 398 9 2 3 -29 6 -70 7 -159 3 217 16 566
18 217 2 342 6 315 10 -25 5 -225 9 -445 9 -220 0 -467 5 -550 10 -82 6 -289
13 -460 17 -170 4 -312 8 -314 10 -12 11 27 11 279 3 449 -15 1264 -21 1380
-10 80 7 1 9 -340 6 -245 -2 -533 -1 -640 3 -183 7 -168 8 255 14 606 10 1002
25 1023 39 15 9 14 10 -3 4 -37 -12 -707 -16 -700 -4 5 7 53 10 144 8 246 -4
547 2 526 11 -17 7 -16 9 10 10 67 3 70 17 5 23 -41 5 -71 14 -82 25 -17 17
-16 17 20 14 20 -1 78 1 127 6 l90 9 -136 2 c-90 1 -141 5 -152 14 -14 10 8
13 123 15 215 5 225 20 15 21 -182 1 -225 6 -225 23 0 5 4 6 10 3 14 -9 372
-7 381 2 5 5 -77 8 -181 8 -105 0 -190 3 -190 6 0 15 42 19 223 21 181 1 185
2 82 8 -60 4 -177 8 -259 9 -145 1 -149 2 -168 26 -10 13 -40 34 -65 45 -25
11 -43 24 -39 28 17 16 771 26 1150 15z m-2569 -847 c282 -86 450 -240 524
-479 97 -314 -55 -659 -353 -803 -156 -76 -218 -84 -646 -83 -353 0 -497 10
-493 33 1 5 18 15 38 22 42 14 81 47 101 86 19 36 21 1028 2 1089 -15 51 -64
101 -127 130 -28 12 -48 26 -45 31 4 6 192 8 458 6 l451 -4 90 -28z m1429
-174 c77 -178 322 -757 402 -949 57 -137 123 -198 185 -173 16 7 40 27 52 44
22 31 22 32 25 556 2 394 0 536 -9 570 -9 30 -30 62 -66 99 -29 30 -53 56 -53
58 0 2 226 2 502 1 l501 -3 90 -110 c49 -60 131 -163 184 -227 52 -65 98 -120
102 -123 5 -2 50 46 102 108 52 62 141 167 198 235 l104 122 733 0 733 0 5
-42 c11 -91 21 -310 14 -314 -4 -3 -30 16 -58 41 -29 26 -64 52 -79 58 -15 7
-102 14 -204 17 l-177 5 2 -165 3 -165 125 0 c147 0 173 6 211 46 24 25 31 28
49 19 19 -10 20 -19 20 -220 0 -165 -3 -210 -13 -210 -7 0 -30 23 -51 51 -51
69 -80 79 -226 79 l-120 0 0 -180 0 -180 188 0 c175 0 191 2 257 26 92 34 136
44 157 38 14 -4 11 -16 -22 -87 -38 -81 -70 -185 -70 -226 0 -25 2 -24 -75 -6
-49 12 -187 15 -785 15 -696 0 -800 3 -800 21 0 4 18 20 39 36 78 55 78 56 86
436 5 237 3 337 -4 337 -11 0 -100 -104 -269 -312 -48 -59 -91 -107 -97 -107
-5 0 -89 95 -185 211 -96 117 -181 213 -187 216 -17 5 -18 -613 -2 -673 7 -24
29 -57 55 -84 24 -24 44 -47 44 -52 0 -26 -107 -29 -878 -27 -440 2 -804 6
-808 10 -4 4 9 25 29 47 68 75 69 99 11 214 l-24 47 -226 0 -225 0 -19 -42
c-22 -48 -26 -118 -9 -151 6 -12 30 -41 52 -64 22 -24 37 -46 33 -50 -10 -10
-354 -17 -422 -8 -29 3 -60 12 -70 20 -18 12 -16 16 28 54 26 23 56 56 67 74
11 18 88 190 171 382 298 686 295 676 247 758 -15 25 -40 56 -57 70 -16 14
-30 28 -30 31 0 3 96 6 213 6 l212 -1 89 -207z m1043 -1350 c-15 -15 -27 -35
-27 -44 0 -18 125 -366 135 -376 3 -3 7 -3 9 -1 5 6 95 233 117 298 25 72 24
90 -8 123 l-27 28 167 0 167 0 -40 -52 c-22 -29 -51 -80 -64 -113 -13 -33 -55
-130 -94 -215 -38 -85 -91 -207 -118 -270 -26 -63 -52 -118 -58 -122 -6 -4
-48 -8 -93 -8 -69 0 -84 3 -92 18 -5 10 -48 119 -94 242 -47 124 -104 272
-126 330 -40 101 -80 160 -108 160 -16 0 -17 -68 -3 -159 6 -35 9 -65 6 -68
-2 -2 -26 12 -53 33 -49 37 -86 56 -135 68 l-28 6 0 -265 c0 -277 3 -300 45
-335 13 -10 13 -15 3 -21 -13 -9 -348 -13 -348 -4 0 2 14 24 30 47 l30 43 -2
267 -3 267 -67 -23 c-37 -13 -86 -38 -110 -55 -23 -17 -42 -30 -42 -28 -1 1 0
59 2 130 l4 127 526 0 526 0 -27 -28z m-2392 -122 c-16 -4 -71 -8 -122 -9 -99
-1 -123 -6 -123 -26 0 -36 263 -250 481 -391 526 -340 1086 -514 1709 -531
487 -13 900 59 1340 235 268 107 550 273 805 473 179 139 215 171 231 201 18
35 9 38 -124 38 -59 0 -114 5 -122 10 -10 6 48 10 173 10 148 0 187 -3 187
-13 0 -17 -137 -150 -250 -243 -334 -276 -726 -489 -1142 -622 -564 -180
-1261 -194 -1863 -37 -319 83 -647 227 -940 412 -234 146 -595 443 -595 487 0
8 10 16 23 18 46 6 361 -5 332 -12z m264 -71 c547 -15 559 -29 24 -25 -343 2
-445 6 -457 16 -26 20 -18 31 17 26 17 -3 205 -11 416 -17z m4001 11 c0 -27
-53 -32 -448 -37 -256 -3 -416 -2 -432 5 -18 7 41 11 215 17 220 6 589 20 643
23 12 1 22 -2 22 -8z m-4732 -44 c15 -8 54 -42 87 -76 120 -123 356 -305 570
-439 422 -265 868 -429 1366 -503 136 -20 193 -23 484 -23 265 0 357 4 465 18
279 38 578 115 810 209 449 182 820 422 1182 765 37 35 75 63 87 63 62 0 103
-56 81 -110 -24 -58 -360 -347 -570 -489 -930 -632 -2101 -802 -3160 -459
-534 173 -1052 483 -1437 860 -73 71 -83 85 -83 116 0 67 57 100 118 68z
m1336 -102 c9 -3 16 -12 16 -18 0 -10 -58 -12 -257 -9 -439 6 -563 13 -563 31
0 14 41 15 394 9 216 -4 401 -9 410 -13z m3146 2 c0 -16 -140 -23 -562 -29
-209 -3 -258 -1 -258 9 0 25 39 27 573 32 206 2 247 0 247 -12z m-3341 -130
c-2 -3 -64 -6 -136 -7 -72 -1 -136 -5 -142 -9 -6 -3 13 -18 42 -33 28 -15 94
-50 146 -77 l93 -50 244 0 c156 0 244 -4 244 -10 0 -10 -195 -17 -340 -12 -46
1 -70 -2 -65 -7 24 -24 262 -106 426 -147 318 -79 630 -111 974 -101 389 13
713 72 1024 189 l143 53 -99 6 c-54 4 -138 7 -188 8 -49 1 -97 6 -105 11 -10
6 66 10 223 10 l237 0 108 54 c144 74 193 105 167 107 -11 1 -78 5 -150 8
l-130 8 195 1 195 2 -100 -62 c-104 -64 -260 -141 -409 -203 -168 -70 -322
-114 -571 -163 -144 -29 -153 -30 -340 -47 -638 -56 -1260 56 -1786 320 -73
37 -162 86 -198 111 l-66 44 184 0 c102 0 182 -2 180 -4z"/>
<path d="M4905 8453 c-445 -40 -932 -189 -1322 -405 l-91 -50 62 -59 c35 -32
74 -74 87 -93 18 -26 29 -34 45 -30 11 3 67 -12 125 -34 149 -57 311 -113 315
-109 4 4 -185 98 -298 148 -42 18 -75 35 -73 37 2 2 51 -17 109 -42 58 -25
108 -46 112 -46 7 0 263 -128 279 -139 23 -17 105 -61 105 -57 0 12 -289 193
-415 261 -72 39 -280 159 -293 170 -2 2 1 6 6 9 5 3 20 -3 33 -13 26 -20 126
-75 276 -151 122 -61 95 -31 -67 76 -135 89 -198 138 -189 148 3 4 28 -9 55
-28 27 -20 96 -61 154 -92 58 -31 119 -65 135 -76 19 -12 13 -3 -18 26 -26 24
-74 62 -106 83 -32 21 -67 44 -77 51 -10 7 1 3 25 -9 25 -12 85 -48 135 -81
50 -33 129 -81 176 -106 106 -56 199 -121 269 -187 30 -27 49 -40 43 -29 -19
36 -241 229 -337 294 -75 50 -237 182 -231 187 3 3 51 -30 108 -74 98 -75 206
-151 238 -167 20 -10 -79 83 -202 190 -53 46 -100 89 -103 95 -15 23 7 21 33
-3 45 -43 189 -156 214 -169 17 -8 13 -2 -12 23 -72 70 -192 198 -186 198 3 0
50 -35 103 -78 54 -43 153 -115 219 -158 l121 -80 -83 95 c-46 52 -84 99 -84
104 0 22 222 -207 312 -323 15 -19 28 -30 28 -23 0 6 -27 46 -60 87 -33 41
-87 115 -121 163 -34 48 -87 121 -118 162 -89 117 -86 111 -69 111 8 0 44 -37
80 -82 37 -46 85 -101 108 -123 l42 -40 -55 80 c-90 132 -128 195 -118 195 14
0 27 -16 125 -149 49 -66 92 -121 97 -121 4 0 -17 41 -47 90 -30 50 -54 93
-54 95 0 2 -11 21 -25 41 -14 20 -25 42 -25 48 0 6 14 -11 31 -38 17 -27 76
-109 130 -182 55 -73 118 -167 140 -209 23 -42 43 -74 45 -72 5 4 -143 299
-171 341 l-19 29 27 -5 c36 -7 35 12 -4 91 -17 34 -29 65 -26 68 7 6 39 -55
67 -127 11 -28 42 -88 69 -133 27 -45 67 -118 90 -162 22 -44 41 -76 41 -72 0
4 -37 90 -81 190 -79 176 -129 304 -129 328 0 25 34 -18 63 -79 16 -34 31 -61
33 -59 5 4 -22 132 -30 145 -3 5 1 9 9 9 7 0 20 -16 29 -36 8 -20 32 -76 54
-126 37 -85 113 -283 127 -333 4 -13 9 -21 12 -19 2 3 -14 63 -36 134 -22 70
-56 182 -77 248 -20 66 -38 123 -41 128 -2 4 0 7 5 7 5 0 23 -30 40 -67 16
-38 39 -88 51 -113 l20 -45 -5 85 c-3 47 -7 96 -10 110 -11 52 6 10 51 -125
26 -77 57 -187 70 -245 30 -137 31 -101 1 118 -30 219 -36 276 -26 265 4 -4
14 -48 24 -98 9 -49 26 -126 36 -170 l20 -80 -5 65 c-13 187 -16 334 -6 320 6
-8 11 -28 11 -45 0 -16 3 -47 7 -68 9 -57 23 -25 23 56 0 94 21 90 33 -8 2
-16 5 -5 6 25 2 69 20 49 22 -25 l2 -50 10 63 c16 103 47 76 47 -42 0 -75 8
-67 21 20 5 38 14 73 20 79 7 7 9 -51 5 -190 l-5 -200 20 105 c10 58 24 139
29 180 8 63 8 52 5 -70 -3 -80 -12 -188 -20 -240 -8 -52 -15 -99 -15 -105 1
-23 18 23 25 65 4 25 23 99 42 165 20 66 43 152 53 190 l18 70 1 -102 c1 -56
6 -105 11 -108 6 -3 10 3 10 14 0 11 12 51 26 88 14 37 28 78 31 91 6 25 23
30 23 6 0 -12 -118 -398 -148 -483 -3 -11 -2 -13 5 -6 6 6 23 44 38 85 14 41
55 147 91 236 35 89 64 167 64 173 0 6 7 11 16 11 11 0 14 -5 9 -17 -4 -10 -9
-45 -11 -78 l-4 -60 20 45 c12 25 26 57 33 73 12 27 27 36 27 16 0 -43 -43
-156 -164 -436 -19 -46 -33 -83 -31 -83 3 0 34 57 70 128 36 70 77 150 92 178
16 28 41 83 57 122 17 40 33 72 38 72 14 0 9 -19 -19 -73 -24 -48 -57 -167
-48 -176 3 -2 10 17 17 43 7 25 15 46 19 46 24 0 14 -34 -40 -143 -67 -134
-79 -170 -28 -86 18 30 60 91 92 135 33 45 85 116 115 158 30 42 56 72 58 67
2 -6 -27 -56 -64 -113 -114 -175 -133 -218 -48 -105 27 34 68 85 92 112 25 28
49 60 55 73 11 24 43 32 33 7 -3 -8 -34 -56 -69 -107 -35 -51 -69 -104 -76
-118 l-12 -25 19 25 c72 92 189 224 202 228 13 5 13 3 0 -15 -8 -11 -65 -91
-127 -176 -61 -86 -144 -195 -182 -243 -39 -48 -71 -92 -71 -98 1 -6 17 9 38
34 47 58 305 321 309 316 2 -2 -12 -21 -32 -42 -41 -44 -95 -118 -95 -131 0
-4 12 7 26 25 14 17 35 37 47 43 20 11 20 10 -3 -16 -29 -31 112 67 177 124
147 129 180 141 61 23 -39 -40 -68 -72 -64 -72 4 0 44 31 89 70 79 67 97 79
97 62 0 -4 -63 -69 -139 -145 -76 -75 -136 -137 -134 -137 9 0 269 199 283
215 14 17 45 21 35 5 -3 -5 -52 -47 -108 -92 -100 -81 -262 -218 -384 -326
-35 -31 -63 -61 -63 -67 0 -7 16 2 35 20 19 18 72 60 117 94 46 34 90 67 98
74 38 33 382 238 388 232 3 -3 3 -6 1 -8 -11 -9 -152 -99 -222 -141 -43 -27
-76 -50 -74 -53 3 -2 31 12 63 32 33 19 63 35 68 35 17 0 165 78 224 119 34
22 66 41 71 41 43 0 -45 -65 -172 -128 -38 -18 -66 -36 -64 -39 3 -2 24 5 47
17 23 12 46 20 51 18 5 -2 -33 -25 -86 -53 -52 -27 -95 -51 -95 -52 0 -15 169
57 215 92 42 31 154 87 167 83 10 -4 -139 -94 -346 -209 -105 -59 -340 -215
-358 -237 -7 -9 7 -2 32 15 70 47 115 67 245 107 66 21 180 60 253 88 72 27
140 47 150 44 12 -3 30 11 60 49 24 29 63 68 87 87 24 18 43 38 41 43 -4 14
-291 166 -396 211 -215 91 -533 179 -785 218 -204 32 -482 44 -650 29z"/>
<path d="M4230 6580 c-19 -4 -213 -37 -430 -74 -217 -37 -412 -71 -432 -77
-58 -15 -45 -27 20 -18 31 5 125 18 207 29 276 38 675 121 675 141 0 5 -1 8
-2 8 -2 -1 -19 -5 -38 -9z"/>
<path d="M5970 6580 c0 -19 386 -98 682 -140 200 -29 267 -35 256 -25 -9 10
-229 55 -360 75 -73 11 -233 37 -355 58 -123 22 -223 36 -223 32z"/>
<path d="M6645 6361 c-45 -20 -194 -124 -212 -148 -10 -13 -14 -11 -26 14 -27
52 -46 62 -115 59 -48 -2 -68 -8 -85 -24 -13 -12 -31 -22 -41 -22 -9 0 -30
-10 -47 -22 l-29 -22 -43 42 c-81 80 -194 105 -267 60 -36 -21 -28 -38 9 -19
25 14 95 14 144 0 49 -13 102 -61 132 -118 l24 -46 11 33 c13 34 36 52 69 52
11 0 31 11 45 25 17 17 36 25 61 25 19 0 35 4 35 10 0 5 6 7 14 4 20 -8 50
-69 43 -87 -7 -19 -132 -83 -224 -117 -35 -12 -63 -27 -63 -33 0 -6 36 -8 93
-5 73 3 104 10 151 31 70 32 72 33 87 6 7 -14 7 -19 0 -15 -14 9 -62 -17 -81
-43 -13 -19 -24 -21 -134 -21 -66 0 -116 -3 -112 -7 4 -5 58 -11 119 -14 l112
-7 37 36 c34 32 40 34 63 24 34 -16 87 -15 109 1 15 11 17 17 7 35 -10 19 -7
23 29 42 l41 21 35 -21 c40 -26 43 -19 9 22 -46 54 -39 58 103 59 127 0 191 5
200 14 8 7 -266 6 -311 -1 -28 -5 -42 -14 -53 -36 -8 -16 -19 -26 -25 -22 -5
3 -21 -1 -34 -10 -21 -14 -25 -14 -36 0 -14 17 -16 15 72 76 64 45 179 160
179 179 0 15 -52 10 -95 -10z"/>
<path d="M3793 6325 c-13 -9 -32 -13 -45 -10 -24 6 -88 -26 -88 -44 0 -5 -47
-7 -107 -6 l-108 4 83 -9 c46 -5 94 -16 107 -24 22 -14 24 -14 48 17 19 25 30
31 56 29 18 -1 39 4 47 13 20 20 58 19 75 -1 9 -11 22 -14 46 -9 29 5 38 2 63
-26 17 -17 30 -35 30 -40 0 -4 21 -8 46 -7 37 0 51 -5 75 -27 16 -16 32 -38
35 -49 6 -17 11 -12 29 30 26 59 71 97 134 114 46 12 126 6 136 -11 7 -11 35
-12 35 -1 0 15 -77 52 -107 52 -66 0 -137 -31 -184 -80 l-47 -48 -20 21 c-14
14 -36 21 -67 23 -26 1 -48 4 -49 6 -1 2 -7 15 -14 31 -14 32 -55 51 -95 43
-18 -4 -34 0 -44 9 -19 19 -43 19 -70 0z"/>
<path d="M5134 7524 c3 -9 6 -27 6 -40 0 -20 5 -24 28 -24 36 0 62 -28 62 -66
0 -43 -25 -74 -61 -74 -27 0 -29 -3 -29 -35 0 -34 1 -35 38 -35 118 0 259 -70
330 -164 l24 -31 -7 55 c-19 162 -45 231 -116 302 -62 62 -148 105 -248 122
-27 5 -32 3 -27 -10z"/>
<path d="M4900 7033 c-23 -8 -70 -55 -70 -69 0 -10 8 -10 35 2 36 15 112 19
132 6 6 -4 -11 -7 -38 -8 -40 0 -55 -6 -77 -27 l-27 -27 83 0 c48 0 82 -4 82
-10 0 -5 -18 -10 -41 -10 -27 0 -38 -4 -33 -11 4 -7 24 -9 49 -6 49 5 55 -3
55 -78 0 -36 1 -38 16 -23 18 17 42 203 31 232 -11 27 -146 48 -197 29z"/>
<path d="M6185 4650 c-275 -3 -450 -6 -390 -8 154 -4 641 -4 950 -1 208 2 240
4 160 9 -55 4 -127 7 -160 6 -33 0 -285 -3 -560 -6z"/>
<path d="M2560 3755 l0 -465 48 0 c75 0 168 18 240 47 79 32 186 131 220 206
88 189 59 386 -75 524 -84 86 -250 152 -385 153 l-48 0 0 -465z"/>
<path d="M5482 4380 c-62 -39 -62 -34 -62 -620 0 -570 1 -579 51 -611 82 -53
169 -6 189 103 7 36 10 239 8 550 -3 450 -5 496 -21 525 -35 65 -109 89 -165
53z"/>
<path d="M7132 4380 c-20 -13 -41 -38 -53 -65 -19 -43 -20 -66 -17 -567 3
-501 4 -524 23 -556 11 -18 38 -42 62 -53 35 -17 48 -18 80 -10 43 12 86 51
102 94 7 19 11 203 11 539 0 500 0 513 -21 555 -36 75 -121 103 -187 63z"/>
<path d="M4097 3773 c-42 -94 -60 -144 -55 -149 3 -2 53 -3 111 -2 l106 3 -43
100 c-36 85 -46 100 -68 103 -22 3 -28 -4 -51 -55z"/>
</g>
</svg>
